<?xml version="1.0" encoding="UTF-8"?>
<svg width="20px" height="20px" viewBox="0 0 20 20" version="1.1" xmlns="http://www.w3.org/2000/svg" xmlns:xlink="http://www.w3.org/1999/xlink">
    <!-- Generator: Sketch 48.1 (47250) - http://www.bohemiancoding.com/sketch -->
    <title>fb-icon</title>
    <desc>Created with Sketch.</desc>
    <defs></defs>
    <g id="home-v2-copy-20" stroke="none" stroke-width="1" fill="none" fill-rule="evenodd" transform="translate(-118.000000, -516.000000)">
        <g id="fb-icon" transform="translate(118.000000, 516.000000)" fill="#FFFFFF" fill-rule="nonzero">
            <path d="M18.8913858,0 L1.1011236,0 C0.494382022,0 0,0.494382022 0,1.1011236 L0,18.8838951 C0,19.4906367 0.494382022,19.9850187 1.1011236,19.9850187 L10.6741573,19.9850187 L10.6741573,12.247191 L8.06741573,12.247191 L8.06741573,9.22846442 L10.6741573,9.22846442 L10.6741573,7.01123596 C10.6741573,4.42696629 12.2546816,3.02621723 14.5543071,3.02621723 C15.6554307,3.02621723 16.6067416,3.10861423 16.8838951,3.14606742 L16.8838951,5.84269663 L15.2883895,5.84269663 C14.0374532,5.84269663 13.7902622,6.43445693 13.7902622,7.31086142 L13.7902622,9.23595506 L16.7790262,9.23595506 L16.3895131,12.2546816 L13.7902622,12.2546816 L13.7902622,20 L18.8838951,20 C19.4906367,20 19.9850187,19.505618 19.9850187,18.8988764 L19.9850187,1.1011236 C19.9925094,0.494382022 19.4981273,0 18.8913858,0 Z" id="White_2_"></path>
        </g>
    </g>
</svg>